<?xml version="1.0" encoding="UTF-8" standalone="no"?>
<!-- Created with Inkscape (http://www.inkscape.org/) -->

<svg
   width="450"
   height="200"
   viewBox="0 0 119.0625 52.916666"
   version="1.1"
   id="svg331"
   inkscape:version="1.2.2 (732a01da63, 2022-12-09)"
   sodipodi:docname="pikapc_logo.svg"
   xmlns:inkscape="http://www.inkscape.org/namespaces/inkscape"
   xmlns:sodipodi="http://sodipodi.sourceforge.net/DTD/sodipodi-0.dtd"
   xmlns="http://www.w3.org/2000/svg"
   xmlns:svg="http://www.w3.org/2000/svg">
  <sodipodi:namedview
     id="namedview333"
     pagecolor="#ffffff"
     bordercolor="#666666"
     borderopacity="1.0"
     inkscape:showpageshadow="2"
     inkscape:pageopacity="0.0"
     inkscape:pagecheckerboard="0"
     inkscape:deskcolor="#d1d1d1"
     inkscape:document-units="mm"
     showgrid="false"
     inkscape:zoom="2.587745"
     inkscape:cx="247.70602"
     inkscape:cy="75.161967"
     inkscape:window-width="3440"
     inkscape:window-height="1356"
     inkscape:window-x="-11"
     inkscape:window-y="-11"
     inkscape:window-maximized="1"
     inkscape:current-layer="layer1" />
  <defs
     id="defs328" />
  <g
     inkscape:label="Layer 1"
     inkscape:groupmode="layer"
     id="layer1">
    <g
       id="Layer_3"
       transform="matrix(0.26458333,0,0,0.26458333,-4.314241,-8.1628213)">
	<path
   d="m 153.765,101.038 -0.013,0.501 -0.01,-0.501 c -7.956,0.159 -14.896,2.893 -20.738,8.167 v -3.887 c 0.004,-0.397 -0.158,-0.788 -0.438,-1.065 -0.26,-0.264 -0.609,-0.445 -0.986,-0.443 h -0.23 l -0.061,0.017 c -0.308,0.075 -0.593,0.239 -0.819,0.466 -0.272,0.269 -0.401,0.649 -0.397,1.025 V 217.44 c -0.006,0.396 0.156,0.79 0.438,1.067 0.271,0.279 0.655,0.44 1.047,0.44 h 0.022 c 0.376,0.002 0.726,-0.179 0.981,-0.438 0.264,-0.26 0.445,-0.609 0.443,-0.983 v -62.171 c 5.84,5.323 12.785,8.054 20.74,8.158 8.75,-0.222 16.08,-3.274 21.904,-9.132 5.829,-5.852 8.867,-13.252 9.089,-22.092 -0.222,-8.81 -3.26,-16.196 -9.089,-22.076 -5.822,-5.884 -13.154,-8.953 -21.883,-9.175 z m 19.997,51.168 c -5.375,5.426 -12.012,8.206 -20.02,8.378 -8.249,-0.171 -15.128,-3.271 -20.738,-9.354 v -37.91 c 5.606,-6.078 12.482,-9.179 20.744,-9.351 8.003,0.229 14.642,3.038 20.014,8.46 5.371,5.432 8.039,12.011 8.043,19.847 -0.004,7.895 -2.672,14.501 -8.043,19.93 z m 23.158,-51 c -0.398,-0.006 -0.791,0.157 -1.068,0.44 -0.264,0.26 -0.444,0.609 -0.44,0.983 v 59.377 c -0.006,0.395 0.155,0.789 0.44,1.066 0.273,0.281 0.66,0.441 1.053,0.441 h 0.015 c 0.376,0.002 0.725,-0.178 0.981,-0.439 0.285,-0.279 0.448,-0.67 0.442,-1.068 v -59.293 c 0.006,-0.398 -0.157,-0.789 -0.438,-1.065 -0.26,-0.264 -0.609,-0.444 -0.985,-0.442 z m 39.668,17.274 17.261,-14.629 c 0.308,-0.304 0.511,-0.653 0.511,-1.053 0.004,-0.378 -0.124,-0.754 -0.37,-1.039 -0.256,-0.308 -0.657,-0.477 -1.052,-0.469 -0.225,0.002 -0.441,0.031 -0.652,0.166 -0.109,0.074 -0.204,0.146 -0.291,0.233 l -34.418,29.089 V 52.501 c 0.006,-0.396 -0.161,-0.797 -0.469,-1.051 -0.285,-0.248 -0.661,-0.376 -1.039,-0.372 -0.351,-0.004 -0.692,0.141 -0.957,0.372 -0.308,0.254 -0.475,0.659 -0.467,1.051 v 80.811 c -0.068,0.104 -0.097,0.21 -0.111,0.272 -0.043,0.168 -0.056,0.345 -0.056,0.539 -0.002,0.151 0.017,0.308 0.056,0.461 0.024,0.094 0.058,0.191 0.111,0.287 v 27.555 c -0.006,0.395 0.155,0.789 0.44,1.067 0.256,0.263 0.607,0.442 0.983,0.44 0.398,0.004 0.789,-0.157 1.066,-0.44 0.285,-0.278 0.448,-0.669 0.442,-1.067 v -27.819 l 16.821,-14.22 c 11.373,13.794 20.989,28.056 28.848,42.779 0.113,0.224 0.293,0.374 0.498,0.515 0.231,0.154 0.5,0.254 0.784,0.254 h 0.022 c 0.389,0 0.771,-0.162 1.042,-0.44 0.285,-0.278 0.448,-0.669 0.441,-1.067 -0.006,-0.283 -0.117,-0.487 -0.25,-0.696 -7.926,-14.86 -17.668,-29.292 -29.194,-43.252 z m 86.459,42.807 c -2.116,-2.388 -3.796,-5.84 -4.957,-10.324 -1.17,-4.505 -1.978,-9.319 -2.423,-14.447 -0.391,-5.304 -0.644,-10.168 -0.756,-14.582 -0.111,-4.023 -0.305,-7.074 -0.587,-9.179 v -0.125 l -0.021,-0.066 c -1.045,-3.501 -3.495,-6.198 -7.229,-8.031 -3.7,-1.879 -7.883,-2.987 -12.531,-3.325 -1.139,-0.056 -2.267,-0.087 -3.393,-0.085 v -0.002 c -3.467,0 -6.715,0.512 -9.737,1.539 -4.119,1.313 -7.138,3.703 -8.932,7.127 -0.12,0.303 -0.176,0.55 -0.176,0.792 -0.003,0.284 0.087,0.575 0.268,0.798 0.281,0.38 0.757,0.579 1.233,0.571 0.557,0.019 1.063,-0.377 1.255,-0.892 1.317,-2.572 3.732,-4.476 7.341,-5.686 2.813,-0.896 5.84,-1.346 9.075,-1.346 0.925,0 1.865,0.037 2.823,0.112 4.314,0.332 8.112,1.326 11.406,2.971 3.212,1.64 5.094,3.682 5.781,6.132 0.215,1.708 0.381,4.483 0.493,8.303 0.043,1.948 0.123,4.035 0.237,6.261 -2.106,-2.901 -4.813,-5.281 -8.101,-7.132 -3.856,-2.172 -8.164,-3.257 -12.885,-3.257 -6.885,-0.004 -12.823,2.249 -17.723,6.725 -4.906,4.469 -7.393,9.937 -7.387,16.285 -0.006,6.345 2.48,11.801 7.389,16.243 4.897,4.449 10.838,6.684 17.721,6.68 5.573,0.002 10.554,-1.471 14.893,-4.412 3.832,-2.594 6.658,-5.912 8.443,-9.928 1.206,5.931 3.342,10.688 6.436,14.251 0.323,0.327 0.685,0.547 1.109,0.549 0.133,0 0.27,-0.022 0.402,-0.068 0.442,-0.159 0.789,-0.512 0.965,-0.95 0.061,-0.157 0.098,-0.313 0.098,-0.485 0.007,-0.409 -0.223,-0.771 -0.53,-1.017 z m -16.068,-6.746 c -4.309,3.919 -9.524,5.87 -15.745,5.875 -6.167,-0.005 -11.372,-1.956 -15.707,-5.877 -4.333,-3.929 -6.463,-8.592 -6.47,-14.115 0.007,-5.523 2.137,-10.187 6.47,-14.117 4.335,-3.92 9.54,-5.872 15.707,-5.876 6.221,0.004 11.437,1.958 15.745,5.875 4.305,3.931 6.424,8.596 6.429,14.119 -0.005,5.522 -2.124,10.187 -6.429,14.116 z m 55.76,-61.786 c -4.857,-2.272 -10.24,-3.406 -16.127,-3.406 -3.941,0 -7.695,0.537 -11.257,1.609 v -0.354 c 0.004,-0.396 -0.159,-0.789 -0.44,-1.065 -0.28,-0.284 -0.671,-0.447 -1.067,-0.442 -0.378,-0.002 -0.729,0.18 -0.985,0.44 -0.264,0.259 -0.443,0.61 -0.438,0.983 l -0.002,71.723 c -0.005,0.396 0.156,0.791 0.44,1.066 0.257,0.264 0.607,0.443 0.985,0.441 h 0.022 c 0.389,0 0.77,-0.162 1.043,-0.438 0.283,-0.278 0.446,-0.671 0.44,-1.069 v -23.064 c 3.556,1.042 7.311,1.561 11.259,1.561 5.887,0 11.27,-1.132 16.127,-3.407 4.851,-2.266 8.744,-5.344 11.651,-9.222 2.917,-3.885 4.387,-8.262 4.383,-13.067 0.004,-4.805 -1.466,-9.179 -4.383,-13.065 -2.907,-3.878 -6.8,-6.954 -11.651,-9.224 z m 4.686,38.358 c -5.705,4.517 -12.616,6.776 -20.813,6.778 -3.991,0 -7.739,-0.574 -11.259,-1.725 l 0.002,-42.187 c 3.524,-1.188 7.274,-1.783 11.257,-1.783 8.193,0.002 15.107,2.264 20.813,6.778 5.704,4.531 8.494,9.843 8.503,16.068 -0.009,6.226 -2.799,11.542 -8.503,16.071 z m 78.418,15.985 c -0.257,-0.31 -0.658,-0.479 -1.053,-0.472 -0.458,-0.005 -0.871,0.25 -1.146,0.608 -5.552,7.374 -12.316,11.604 -20.384,12.792 -1.445,0.208 -2.866,0.315 -4.272,0.315 -6.469,-0.002 -12.586,-2.229 -18.402,-6.724 -6.896,-5.908 -10.966,-13.268 -12.241,-22.143 -0.265,-1.825 -0.394,-3.627 -0.394,-5.407 0.002,-6.884 1.949,-13.454 5.867,-19.746 5.195,-7.625 11.759,-12.199 19.745,-13.801 1.895,-0.379 3.772,-0.568 5.631,-0.568 5.944,0 11.697,1.936 17.296,5.838 0.079,0.077 0.167,0.142 0.26,0.203 0.213,0.137 0.432,0.162 0.65,0.165 0.373,0.002 0.725,-0.177 0.983,-0.44 0.282,-0.276 0.446,-0.669 0.439,-1.067 -0.008,-0.444 -0.246,-0.783 -0.563,-1.109 -5.9,-4.248 -12.142,-6.391 -18.743,-6.446 l -0.005,0.499 V 89.096 C 414,89.094 408.774,90.42 403.863,93.06 c -4.922,2.646 -9.085,6.56 -12.483,11.714 -4.227,6.736 -6.349,13.833 -6.349,21.257 0,1.938 0.146,3.898 0.434,5.881 1.384,9.572 5.809,17.569 13.23,23.907 6.341,4.945 13.098,7.436 20.229,7.433 1.547,0 3.109,-0.115 4.69,-0.347 8.833,-1.298 16.28,-5.952 22.261,-13.875 0.196,-0.129 0.257,-0.338 0.281,-0.436 0.038,-0.153 0.058,-0.305 0.058,-0.461 0.004,-0.377 -0.125,-0.751 -0.371,-1.035 z"
   id="path58" />

	<path
   d="m 77.729,74.484 c -0.078,-0.266 -0.356,-0.417 -0.62,-0.339 -1.135,0.378 -2.57,1.648 -3.295,2.733 0.045,-0.236 0.083,-0.476 0.083,-0.723 0,-2.401 -2.206,-4.347 -4.927,-4.347 -2.721,0 -4.927,1.946 -4.927,4.347 0,0.873 0.298,1.683 0.801,2.364 -0.963,-0.568 -2.309,-1.241 -3.673,-1.491 -0.272,-0.049 -0.531,0.133 -0.579,0.405 -0.049,0.272 0.131,0.532 0.403,0.581 v -0.002 c 1.709,0.301 3.648,1.52 4.347,2.004 0.83,0.53 2.775,0.865 4.447,0.886 0.384,0 0.749,-0.023 1.08,-0.074 1.849,-0.329 3.102,-1.988 3.57,-3.049 0.25,-0.716 2.143,-2.49 2.951,-2.674 0.265,-0.079 0.417,-0.357 0.339,-0.621 z m -5.436,2.04 c -0.509,0.667 -1.56,0.744 -2.508,0.247 -0.386,0.453 -1.166,0.458 -1.776,-0.007 -0.626,-0.48 -0.832,-1.265 -0.457,-1.755 0.162,-0.212 0.413,-0.317 0.688,-0.349 -0.029,-0.375 0.057,-0.73 0.277,-1.018 0.591,-0.775 1.916,-0.758 2.959,0.038 1.043,0.797 1.41,2.07 0.817,2.844 z"
   id="path60" />

	<path
   d="m 183.404,123.542 c -8.447,-39.084 -39.29,-54.203 -48.2,-58.06 0.126,-1.052 0.179,-1.981 0.181,-2.722 0,-0.477 -0.019,-0.877 -0.06,-1.215 -0.227,-1.827 -0.925,-4.803 -3.105,-7.389 -2.173,-2.592 -5.867,-4.671 -11.637,-4.656 -6.908,0.03 -11.882,3.521 -15.059,6.851 -5.544,-1.23 -10.3,-2.102 -16.08,-2.102 -4.579,0 -9.812,0.417 -16.551,1.854 -12.425,2.648 -19.142,7.411 -24.935,12.689 -2.471,2.252 -5.64,5.722 -8.353,9.26 -2.696,3.556 -4.905,7.231 -4.94,10.615 -0.021,5.665 0.367,10.149 4.507,15.057 2.366,2.794 8.191,7.19 15.83,9.544 -0.211,1.452 -0.535,3.684 -0.535,6.466 -0.008,7.397 2.324,18.691 15.038,29.727 12.297,10.689 26.467,14.705 43.69,14.699 4.631,0 13.498,-0.299 18.601,-0.823 v -1.915 c -0.143,0.002 -0.266,0.007 -0.423,0.007 -2.997,0 -12.506,-0.388 -21.721,-2.305 -25.327,-5.275 -40.823,-15.358 -44.665,-31.732 -0.419,-1.774 -0.578,-3.427 -0.578,-4.922 0,-2.487 0.44,-4.547 0.882,-6.02 0.194,-0.644 0.385,-1.168 0.542,-1.576 4.105,-0.067 8.433,-0.928 12.778,-2.97 17.701,-8.312 23.105,-16.301 24.567,-21.28 0.154,-0.53 0.274,-0.842 -0.039,-0.999 -0.524,-0.152 -1.049,0.561 -1.85,1.626 V 91.25 l -0.032,0.043 c 0.009,-0.012 0.017,-0.023 0.026,-0.035 -0.131,0.19 -14.29,20.638 -40.723,18.054 -13.907,-1.36 -19.508,-6.151 -21.757,-9.583 -1.739,-3.03 -2.065,-5.921 -2.126,-9.726 0.563,1.147 1.264,2.379 1.844,3.424 0.41,0.737 0.71,1.204 0.995,1.462 0.658,2.067 1.989,4.817 4.487,6.756 3.428,2.654 5.466,3.52 10.12,4.377 0.03,0.005 0.061,0.008 0.091,0.008 0.238,0 0.448,-0.168 0.494,-0.408 0.049,-0.271 -0.129,-0.533 -0.4,-0.583 -4.617,-0.872 -6.307,-1.592 -9.693,-4.186 -2.112,-1.617 -3.347,-3.983 -4.008,-5.862 0.45,-0.217 1.031,-0.658 1.912,-1.24 2.463,-1.626 1.487,-2.881 -1.348,-4.461 -1.822,-1.015 -3.238,-2.142 -4.18,-2.661 0.656,-2.19 2.235,-4.819 4.2,-7.361 2.611,-3.411 5.835,-6.718 8.18,-9.063 4.747,-4.706 11.832,-9.802 27.314,-12.141 8.563,-1.293 13.191,-1.476 17.438,-0.252 7.375,2.125 7.281,9.453 10.672,2.907 0.601,-1.159 1.144,-1.81 1.525,-2.263 1.131,-1.275 2.546,-2.622 4.252,-3.788 3.134,-0.081 10.602,-0.384 15.82,4.226 3.618,3.196 5.274,8.73 5.21,12.89 -0.339,0.88 -0.734,1.762 -1.199,2.621 -2.369,4.349 -6.287,8.128 -13.163,8.764 -0.55,0.049 -0.955,0.536 -0.906,1.086 0.046,0.52 0.484,0.91 0.996,0.91 0.03,0 0.06,-0.001 0.09,-0.004 7.596,-0.667 12.205,-5.051 14.744,-9.81 0.796,-1.482 1.407,-3 1.872,-4.468 1.915,0.359 6.678,2.439 18.544,10.615 15.493,10.675 25.477,31.69 29.669,42.042 h 1.155 z"
   id="path62" />

</g>
  </g>
</svg>
